<svg height="512" viewBox="0 0 448 512" width="448" xmlns="http://www.w3.org/2000/svg"><path d="m48 32c-26.5 0-48 21.5-48 48v352c0 26.5 21.5 48 48 48h352c26.5 0 48-21.5 48-48v-352c0-26.5-21.5-48-48-48zm176 64c88.37321 0 160 71.63992 160 160 0 88.36009-71.62679 160-160 160s-160-71.63991-160-160c0-88.36008 71.62679-160 160-160zm-62.61328 58.25391c-7.20016 0-13.03906 5.85223-13.03906 13.02539 0 7.22679 5.85238 13.04101 13.03906 13.04101 7.21328 0 13.03853-5.80111 13.05273-13.04101 0-7.18667-5.83945-13.02539-13.05273-13.02539zm-9.4668 39.90625v132.49414h18.95899v-132.49414zm48.5332 0v132.29296h41.90821c11.77313 0 19.7334-.31931 23.91992-.97265 4.17337-.67994 8.7462-2.00076 13.74609-3.94727 8.54657-3.22692 16.04045-7.97364 22.48047-14.32031 6.33319-6.13339 11.1981-13.25231 14.61133-21.3457h.00195c3.39973-8.07989 5.13334-16.56124 5.11914-25.44141 0-12.37322-3.10653-23.82493-9.30664-34.31836-6.20013-10.47997-14.53388-18.45366-25.02734-23.85351-10.50692-5.41333-24.74519-8.09375-42.78516-8.09375zm19 16.8789h23.67969c9.12005 0 15.7078.33446 19.81446 1.04102 4.12016.67996 8.46645 2.12091 13.0664 4.26758v-.00196c4.55983 2.16014 8.63889 4.92053 12.18555 8.25391 9.61335 8.98698 14.41406 20.59939 14.41406 34.82617 0 14.48017-4.6805 26.45388-14.02734 35.94727-2.91995 2.91994-6.13209 5.36104-9.63867 7.34765-3.50655 2.0001-7.88149 3.62674-13.13477 4.91992-5.25328 1.29317-12.61136 1.94532-22.07812 1.94532h-24.28126z"/></svg>